<svg id="svg" version="1.1" width="100" height="100" xmlns="http://www.w3.org/2000/svg" xmlns:xlink="http://www.w3.org/1999/xlink" ><g id="svgg"><path id="path0" d="M148.000 11.321 C -67.114 83.039,-22.934 396.000,202.305 396.000 C 456.826 396.000,462.390 14.369,208.000 5.336 C 179.014 4.307,164.781 5.726,148.000 11.321 M277.374 39.120 C 341.234 69.004,380.755 131.912,379.601 201.840 C 378.875 245.851,380.417 244.473,330.986 245.290 L 287.998 246.000 287.999 223.614 L 288.000 201.228 244.791 167.160 L 201.581 133.092 189.791 142.526 C 182.136 148.651,172.738 151.967,163.000 151.980 C 149.101 151.999,148.000 152.856,148.000 163.664 C 148.000 172.493,144.111 178.408,132.000 188.000 C 116.707 200.113,116.000 201.673,116.001 223.336 L 116.002 246.000 73.001 245.300 L 30.000 244.599 26.606 221.300 C 7.086 87.297,153.314 -18.935,277.374 39.120 M188.000 56.000 C 188.000 68.029,189.595 72.000,194.428 72.000 C 198.646 72.000,200.021 69.825,198.428 65.673 C 197.093 62.193,196.000 54.993,196.000 49.673 C 196.000 44.353,194.200 40.000,192.000 40.000 C 189.800 40.000,188.000 47.200,188.000 56.000 M204.000 56.045 C 204.000 70.397,205.005 72.000,214.000 72.000 C 222.904 72.000,224.000 70.342,224.000 56.872 C 224.000 43.624,222.758 41.642,214.000 40.917 C 204.866 40.161,204.000 41.472,204.000 56.045 M162.349 59.000 C 165.689 77.474,165.550 77.317,175.699 74.096 C 185.081 71.118,185.607 68.747,180.099 54.260 C 173.341 36.486,158.973 40.322,162.349 59.000 M231.738 54.690 C 226.719 67.889,229.784 77.016,238.656 75.296 C 248.011 73.481,254.789 52.224,247.488 47.599 C 238.772 42.077,236.071 43.293,231.738 54.690 M136.000 57.534 C 136.000 64.987,144.393 84.023,147.642 83.939 C 156.841 83.700,160.725 76.172,157.174 65.463 C 153.018 52.930,136.000 46.557,136.000 57.534 M257.068 61.000 C 257.190 65.950,255.907 73.150,254.217 77.000 C 249.628 87.454,258.848 85.654,264.458 75.000 C 267.065 70.050,271.178 64.650,273.599 63.000 C 276.631 60.933,276.134 58.775,272.000 56.061 C 262.212 49.636,256.832 51.415,257.068 61.000 M113.023 69.000 C 120.203 88.104,120.432 91.915,114.262 89.547 C 110.786 88.213,108.000 89.219,108.000 91.808 C 108.000 94.373,106.008 95.241,103.573 93.736 C 100.485 91.827,100.777 89.992,104.540 87.667 C 108.135 85.444,108.600 83.000,105.933 80.333 C 97.143 71.543,89.378 82.681,96.000 94.579 C 104.124 109.175,108.207 109.738,120.855 98.010 C 126.793 92.505,133.529 88.000,135.825 88.000 C 142.625 88.000,140.627 81.983,130.742 72.697 C 120.656 63.221,110.017 61.002,113.023 69.000 M278.227 72.890 C 270.395 84.071,270.322 90.500,277.992 93.443 C 285.365 96.273,297.861 78.620,294.565 70.031 C 291.300 61.520,285.477 62.539,278.227 72.890 M296.199 89.788 C 287.540 99.005,287.401 99.972,293.814 106.385 C 302.397 114.969,322.294 98.633,317.733 86.748 C 314.117 77.323,306.960 78.333,296.199 89.788 M148.000 111.722 C 148.000 126.521,148.931 128.000,158.241 128.000 C 172.684 128.000,171.525 98.785,157.000 96.722 C 148.932 95.576,148.000 97.129,148.000 111.722 M174.521 105.000 C 170.309 120.718,171.355 130.245,176.705 124.895 C 180.141 121.459,182.838 121.376,186.705 124.585 C 190.779 127.966,191.987 127.253,191.945 121.490 C 191.847 107.999,187.165 96.000,182.000 96.000 C 179.213 96.000,175.848 100.050,174.521 105.000 M196.000 111.500 C 196.000 125.367,197.054 127.000,206.000 127.000 C 214.946 127.000,216.000 125.367,216.000 111.500 C 216.000 97.633,214.946 96.000,206.000 96.000 C 197.054 96.000,196.000 97.633,196.000 111.500 M222.805 98.528 C 221.262 100.071,220.000 106.241,220.000 112.239 C 220.000 124.185,228.429 129.971,235.513 122.887 C 241.956 116.444,241.042 110.744,234.000 113.447 C 230.382 114.835,228.000 113.467,228.000 110.000 C 228.000 106.320,230.356 105.155,234.546 106.763 C 239.047 108.490,240.505 107.514,239.214 103.637 C 237.115 97.332,227.115 94.219,222.805 98.528 M243.313 112.017 C 241.869 127.157,242.339 127.962,251.893 126.703 C 267.015 124.711,269.604 96.000,254.662 96.000 C 246.123 96.000,244.641 98.091,243.313 112.017 M242.425 178.217 L 276.000 204.434 276.000 230.217 L 276.000 256.000 324.000 256.000 C 350.400 256.000,372.000 257.011,372.000 258.248 C 372.000 268.523,346.602 309.892,330.246 326.259 C 247.999 408.557,105.150 390.234,47.565 290.000 C 28.314 256.490,28.810 256.000,82.000 256.000 L 128.000 256.000 128.000 230.240 L 128.000 204.479 161.000 178.394 C 201.746 146.186,201.405 146.187,242.425 178.217 M170.620 191.315 C 162.554 200.228,162.185 223.267,169.945 233.515 C 179.395 245.995,207.149 246.244,212.774 233.899 C 218.859 220.545,222.821 221.434,229.608 237.678 C 238.325 258.542,268.000 266.412,268.000 247.859 C 268.000 242.739,262.644 242.956,257.307 248.293 C 249.427 256.173,233.990 225.593,239.616 213.246 C 248.089 194.649,233.904 178.060,217.417 187.286 C 213.364 189.555,205.761 189.652,198.363 187.530 C 181.156 182.596,178.138 183.007,170.620 191.315 M185.447 198.000 C 183.837 202.195,185.750 204.000,191.808 204.000 C 197.339 204.000,199.440 202.330,197.618 199.382 C 195.809 196.454,196.525 195.853,199.576 197.738 C 202.594 199.603,203.030 202.444,200.746 205.356 C 198.742 207.910,195.921 214.950,194.475 221.000 C 191.604 233.019,182.288 235.732,178.428 225.673 C 174.516 215.478,175.625 201.975,180.800 196.800 C 187.137 190.463,188.230 190.746,185.447 198.000 M230.657 198.269 C 233.991 206.957,225.527 215.127,219.469 209.069 C 214.349 203.949,217.521 192.000,224.000 192.000 C 226.338 192.000,229.334 194.821,230.657 198.269 M128.000 320.000 C 128.000 333.333,129.333 336.000,136.000 336.000 C 140.400 336.000,144.000 334.200,144.000 332.000 C 144.000 329.800,141.750 327.972,139.000 327.939 C 135.656 327.898,135.988 326.573,140.000 323.939 C 145.333 320.438,145.333 319.562,140.000 316.061 C 135.988 313.427,135.656 312.102,139.000 312.061 C 141.750 312.028,144.000 310.200,144.000 308.000 C 144.000 305.800,140.400 304.000,136.000 304.000 C 129.333 304.000,128.000 306.667,128.000 320.000 M153.648 309.476 C 152.352 312.853,152.362 317.349,153.670 319.467 C 154.979 321.584,153.789 324.233,151.025 325.354 C 147.223 326.895,147.461 328.423,152.000 331.630 C 161.409 338.279,166.000 334.462,166.000 319.991 C 166.000 306.010,157.692 298.937,153.648 309.476 M173.572 310.327 C 174.907 313.807,176.000 321.007,176.000 326.327 C 176.000 333.978,178.090 336.000,186.000 336.000 C 191.500 336.000,196.000 334.200,196.000 332.000 C 196.000 329.800,193.975 328.000,191.500 328.000 C 188.633 328.000,187.871 323.644,189.400 316.000 C 191.571 305.145,190.814 304.000,181.472 304.000 C 173.698 304.000,171.744 305.564,173.572 310.327 M206.933 307.000 C 202.254 316.123,204.313 336.000,209.936 336.000 C 214.344 336.000,216.000 331.630,216.000 320.000 C 216.000 305.773,211.138 298.802,206.933 307.000 M225.686 309.376 C 221.847 319.380,225.596 334.000,232.000 334.000 C 236.163 334.000,238.000 329.815,238.000 320.333 C 238.000 306.150,229.743 298.804,225.686 309.376 M249.482 308.789 C 243.725 318.018,244.023 327.040,250.258 332.214 C 258.588 339.127,264.988 332.059,263.313 317.796 C 261.863 305.449,254.540 300.681,249.482 308.789 M272.850 308.750 C 265.816 315.784,266.904 330.724,274.669 333.703 C 283.920 337.253,288.867 331.030,287.313 317.796 C 285.831 305.175,280.044 301.556,272.850 308.750 " stroke="none" fill="#000000" fill-rule="evenodd"></path></g></svg>